<?xml version="1.0" encoding="utf-8"?>
<!-- Generator: Adobe Illustrator 19.2.1, SVG Export Plug-In . SVG Version: 6.00 Build 0)  -->
<svg version="1.1" id="layer" xmlns="http://www.w3.org/2000/svg" xmlns:xlink="http://www.w3.org/1999/xlink" x="0px" y="0px"
	 viewBox="0 0 652 652" style="enable-background:new 0 0 652 652;" xml:space="preserve">
<style type="text/css">
	.st0{fill:#2C2560;}
	.st1{clip-path:url(#SVGID_2_);fill:url(#SVGID_3_);}
	.st2{fill:#126FB7;}
	.st3{fill:#018343;}
	.st4{fill:#F59FC0;}
	.st5{fill:#EB73A5;}
	.st6{fill:#EA5089;}
	.st7{fill:#DE1F26;}
	.st8{fill:#D8196A;}
</style>
<polygon class="st0" points="-47.7,83.5 -15.9,505.2 320,568.2 659.2,505.2 700.3,83.5 "/>
<path class="st0" d="M-13,502.5L-44.3,86.7H320h376.8l-40.5,415.8L320,565L-13,502.5z M696.8,80.4H320H-44.3h-6.8l0.5,6.8L-19.3,503
	l0.4,4.8l4.8,0.9l333,62.5l1.2,0.2l1.2-0.2l336.3-62.5l4.7-0.9l0.5-4.7l40.5-415.8l0.7-6.9H696.8z"/>
<g>
	<defs>
		<polygon id="SVGID_1_" points="-58.6,74.6 -26.8,496.2 309.1,559.3 648.3,496.2 689.4,74.6 		"/>
	</defs>
	<clipPath id="SVGID_2_">
		<use xlink:href="#SVGID_1_"  style="overflow:visible;"/>
	</clipPath>
	
		<linearGradient id="SVGID_3_" gradientUnits="userSpaceOnUse" x1="-237.1713" y1="746.0117" x2="-216.0635" y2="746.0117" gradientTransform="matrix(0 -12.2608 -12.2608 0 9462.0928 -2572.0308)">
		<stop  offset="0" style="stop-color:#FFFFFF"/>
		<stop  offset="1" style="stop-color:#FAF39B"/>
	</linearGradient>
	<rect x="-58.6" y="74.6" class="st1" width="747.9" height="484.7"/>
</g>
<path class="st0" d="M-23.9,493.5L-55.2,77.7h364.3h376.8l-40.5,415.8L309.1,556L-23.9,493.5z M-61.9,71.4l0.5,6.8L-30.2,494
	l0.4,4.8l4.8,0.9l333,62.5l1.2,0.2l1.2-0.2l336.3-62.5l4.7-0.9l0.5-4.7l40.5-415.8l0.7-6.9H-61.9z"/>
<g>
	<path class="st2" d="M214.2,180.5c0,0,13.5,16.2,13.5,35.1c0,21.9-12.8,39.6-12.8,39.6s-16.7-11.8-16.7-37.4
		C198.2,198.2,214.2,180.5,214.2,180.5"/>
	<path class="st0" d="M282.3,264.4c0,0,14.4-8,74.3-32.5c59.9-24.5,92-32.8,92-32.8s-0.3,2.5-2.4,9.3c-2,6.2-6.3,12.7-6.3,12.7
		s-44.7,8.2-75.5,21.1c-52.6,21.9-68.7,40.4-68.7,40.4L282.3,264.4z"/>
	<path class="st3" d="M339.5,262.4c0,0,2.6,2.7,5.6,7c3,4.2,5.3,7.3,5.3,7.3s5.4-14.3,31.7-14.3c2.5,0,7.4,0.9,12-1.3
		c4.8-2.3,12.9-7.2,17.4-10.4c7.8-5.5,15.3-13.2,15.3-13.2s-22.8,1.3-49.3,8.2C351.1,252.6,339.5,262.4,339.5,262.4"/>
	<path class="st4" d="M428.2,171.7c-11.7-17.2-44.7-29.5-83.6-29.6c-20.9-0.1-40.4,3.6-56.2,10l2.8,26.4l113.4,13.7L428.2,171.7z"/>
	<path class="st5" d="M290.3,168.2c12.6-4.7,28.2-7.5,45-7.5c33.2,0,61.4,10.8,71.7,25.8l-30.1,18l-92.5-16.4L290.3,168.2z"/>
	<path class="st6" d="M383.8,200.9c-10.8-13.3-34.6-22.5-62.2-22.5c-11.7,0-22.8,1.7-32.5,4.6l-23.2,24.8l73.6,15.9L383.8,200.9z"/>
	<path class="st7" d="M284.1,200.8c7.9-2.5,16.8-3.9,26.2-3.9c22.3,0,41.8,7.9,52,19.5l-125.8,40.8l-2.5-3.2L284.1,200.8z"/>
	<path d="M195.7,399.2c14,0,35-24.1,35-24.1l6.2,7.2c0,0-21.2,34.9-52.1,34.9c-34.7,0-36.6-34.1-36.6-39.6c0-58.4,37-78.8,70.5-78.8
		c19.9,0,22.5,15.3,22.5,19.9c0,32.9-63.7,54.1-63.7,54.1S177.3,399.2,195.7,399.2 M179.1,359.3c0,0,33-9.7,33-29.5
		c0-6.2-5.1-13.7-12.2-13.7C183.2,316.1,179.1,359.3,179.1,359.3"/>
	<path d="M274.3,413c0,0,12.8-84.6,45.6-84.6c3.4,0,8.1,1.5,8.1,1.5l4-31.2c0,0-2.5-1.3-5.7-1.3c-28.5,0-41.5,45.3-41.5,45.3
		l7.2-47.2c0,0-5.8,2.7-17.7,6.5c-11.9,3.8-20,6.7-20,6.7s6.5,5.8,4.8,18.8c-1.7,13-11.6,89.8-11.6,89.8L274.3,413z"/>
	<path d="M471.8,399.2c14,0,35-24.1,35-24.1l6.2,7.2c0,0-21.2,34.9-52.1,34.9c-34.7,0-36.6-34.1-36.6-39.6c0-58.4,37-78.8,70.5-78.8
		c19.9,0,22.5,15.3,22.5,19.9c0,32.9-63.7,54.1-63.7,54.1S453.4,399.2,471.8,399.2 M455.2,359.3c0,0,33-9.7,33-29.5
		c0-6.2-5.1-13.7-12.2-13.7C459.3,316.1,455.2,359.3,455.2,359.3"/>
	<path d="M523.6,417.2c0,0,9.9-76.8,11.6-89.8c1.7-13-4.8-18.8-4.8-18.8s8.1-2.9,20-6.7c11.9-3.8,17.7-6.5,17.7-6.5l-7.2,47.2
		c0,0,13-45.3,41.5-45.3c3.2,0,5.7,1.3,5.7,1.3l-4,31.2c0,0-4.7-1.4-8.1-1.4c-32.8,0-45.6,84.6-45.6,84.6L523.6,417.2z"/>
	<path d="M418.5,305.3c-1,8.1-0.4,3.4-12,92.9c-8.1,63-53.4,70.8-66.8,70.8c-13.4,0-26.7-5.9-26.7-5.9l4.9-38.5
		c0,0,12.2,24.7,32.2,24.7c23.6,0,28.8-56.9,28.8-56.9s-6.9,24.8-31.4,24.8c-18.6,0-27.4-23.2-25.9-40.2
		c5.9-66.6,43.7-78.5,74.4-79.9c17.8-0.8,26.6-1.8,26.6-1.8S419.6,297.2,418.5,305.3 M390.4,313c0,0-12-3.4-19.6,5.1
		c-7.6,8.4-19.1,48.7-19.1,64.2c0,12.2,3,13.8,6,13.8c3,0,16.3-11.5,23.3-39.7C388,328.1,392,315.3,390.4,313"/>
	<path d="M504,224.2c0,0-0.4-7.9-7.9-7.9c-7.5,0-8.5,6.7-8.5,9.3c0,4.4,4,12.8,18.6,12.8s25.9-13.8,25.9-24
		c0-10.2-12-20.8-25.7-20.8c-13.6,0-33.8,10.9-38.9,37.5c-2.1,11-1.7,23.5-4.9,32.6c-3.6,10-15.3,20.3-31.8,20.3
		c-6.7,0-10.1-6.3,1.4-6.3c21.7,0,26.9,1.8,58.4,10.8c23.9,6.9,29,10.1,37.9,10.1c11.3,0,12.2-8.4,12.2-8.4s-5.5,2.2-10.9,2.2
		c-5.3,0-28-7.9-45.8-12.4c-17.8-4.5-22.7-6.4-44.8-6.4c-33,0-24.9,14.9-13.2,14.9c10.5,0,40.3-6,47.6-34.9
		c3.6-14.2,1.6-52.6,30.4-52.6c16,0,19,12.7,19,16.8c0,4.1-4.2,16-16,16c-7.3,0-10.8-4.3-10.8-7.1c0-2.8,2.3-3.9,3.9-3.9
		C501.7,222.9,504,224.2,504,224.2"/>
	<path d="M515,250.3c0,9.9-23.7,14.4-23.7,14.4s-1.8,7.6,5,7.6c3.5,0,5.7,0.4,14.6-8.1c8.9-8.5,13.7-17,13.7-17h7.9
		c0-0.1-10.6,13.8-14.4,18.5c-3.8,4.7-3,6.5-0.3,6.5c2.7,0,8.1-2,13.5-8.4c5.4-6.4,12.5-16.8,12.5-16.8l7.5,0.1
		c0,0-6.8,9.3-12.4,16.4c-2.4,3-3.9,9.7,1.2,9.7c6.5,0,22.8-12.5,22.8-19.9c0-1.6-1-3.1-3.1-3.1c-3.9,0-3.7,5.4-3.7,5.4
		s-3.4-1.3-3.4-5c0-3.8,4.4-6.4,7.4-6.4c4.2,0,7.5,3.4,7.5,6.9c0,10.3-20.4,25.3-30.1,25.3c-7.7,0-6.9-7.5-6.9-7.5s-10,7.5-16.7,7.5
		s-5.4-6.9-5.4-6.9s-7.1,6.4-15.4,6.4c-2.1,0-8.6-1.4-8.6-7.9C484.5,250.5,515,238,515,250.3 M492.8,261.3c0,0,3.4,0.9,10.7-3.8
		c8.6-5.6,6.4-10.1,0.5-6.8S492.5,260.6,492.8,261.3"/>
	<path d="M551,275.3c0,0,9.1-1.5,17.6-12.6c8.6-11.1,11.8-16.5,11.8-16.5h6.9c0,0-6.9,10.7-12.1,16.6c-7.5,8.5-3,11.8,2.3,7.4
		c5.3-4.4,16.7-15,23-21.6c3.4-3.7,3.2-5,4.5-5c1.3,0,1.1,0.5,1.1,1.1s-1.7,1-1.7,5.9c0,4.6,1.7,5.1,1.7,12.6
		c0,7.5-5.3,12.8-10.8,12.8c-9.7,0-8.9-9.7-8.8-9.7c0.1,0-11.5,10.3-18.1,10.3c-4.4,0-4.3-5-4.3-5s-6.2,4.1-9.5,4.1
		C552.7,275.6,551,275.3,551,275.3 M594.8,263.1c1,1.9,0.2,3.4,0.2,3.4s-0.2-0.7-2.3-0.7c-2.1,0-3.2,2-3.2,3.2c0,1.2,1,3.1,3.9,3.1
		c3.6,0,9-6,6.3-14.3c-0.4-1.2-1-3.9-1-3.9l-7.5,7.6C591.2,261.6,593.8,261.2,594.8,263.1"/>
	<path d="M593.1,238.7c0,1.9-1.6,3.5-3.5,3.5s-3.5-1.6-3.5-3.5c0-1.9,1.6-3.5,3.5-3.5S593.1,236.8,593.1,238.7"/>
	<path class="st8" d="M98.8,466.7c2-0.5,5.2-0.9,8.2-1c2.8-0.1,6.1,0.3,8.4,1.9c2.1,1.4,3.5,3.5,3.5,6.6c0.1,3.9-1.6,7-4.1,8.9
		c-2.5,2.1-6.1,3-9.9,3.1c-1.1,0-2,0-2.7-0.1l-1.9,11.4l-6.6,0.2L98.8,466.7z M103,480.6c0.7,0.1,1.5,0.2,2.6,0.2
		c4.1-0.1,6.6-2.8,6.6-5.9c-0.1-3-2.3-3.9-4.9-3.9c-1.2,0-2.1,0.1-2.7,0.3L103,480.6z"/>
	<path class="st8" d="M132.9,496.8c0-1.4,0.1-2.9,0.3-4.5H133c-2,3.8-4.9,5.1-7.6,5.1c-4.1,0-6.9-3.1-7-7.9
		c-0.1-7.7,4.9-15.9,16.1-16.1c2.7,0,5.7,0.4,7.6,1l-2.3,11.9c-0.5,2.9-0.9,7.4-0.8,10.3L132.9,496.8z M134.6,478.8
		c-0.5-0.1-1.2-0.2-1.8-0.2c-4.3,0.1-7.5,5.4-7.4,9.6c0,2.2,0.9,3.8,2.8,3.7c2,0,4.5-2.3,5.4-7.9L134.6,478.8z"/>
	<path class="st8" d="M143.4,496.8l4.3-22.8h6.7l-4.3,22.8L143.4,496.8z M148.7,467.9c0-2.3,1.8-3.8,3.9-3.8c2,0,3.4,1.3,3.4,3.3
		c0,2.4-1.8,3.8-3.9,3.8C150.1,471.1,148.7,469.9,148.7,467.9"/>
	<path class="st8" d="M155.4,496.7l3.1-15.3c0.6-2.9,1-5.4,1.3-7.4l6,0.1l-0.5,3.8h0.1c2.2-3,5-4.2,8.1-4.2c3.7,0,5.8,2.3,5.8,6.3
		c0,1-0.2,2.7-0.4,3.9L176,497l-6.7-0.1l2.5-12.6c0.1-0.8,0.3-1.7,0.3-2.6c0-1.6-0.5-2.7-2.2-2.7c-2.2,0-4.8,2.7-5.8,7.7l-2,10.1
		L155.4,496.7z"/>
	<path class="st8" d="M194.6,468.3l-1.4,6.3l4.8,0.2l-1.1,5l-4.8-0.2l-1.8,7.7c-0.2,0.9-0.4,2.1-0.5,2.9c0,1.1,0.4,1.9,1.8,2
		c0.6,0,1.3,0,1.9,0l-1,5.2c-0.8,0.3-2.5,0.4-4,0.4c-4-0.1-5.8-2.2-5.8-5.1c0-1.3,0.2-2.5,0.6-4.2l2.1-9l-2.9-0.1l1.1-5l2.9,0.1
		l1.1-4.8L194.6,468.3z"/>
	<path class="st8" d="M214.9,475.9l0.6,10c0.1,2.3,0.2,4,0.3,5.4l0.1,0c0.6-1.3,1.3-2.8,2.4-5.1l5-9.6l7,0.6l-9.5,15.6
		c-3.5,5.8-6.5,9.7-9.8,12.3c-2.9,2.3-6.1,3.1-7.6,3.3l-1-5.8c1.1-0.2,2.6-0.7,4-1.5c1.6-0.9,3-2.2,4-3.6c0.3-0.3,0.3-0.6,0.2-1.1
		l-2.8-21L214.9,475.9z"/>
	<path class="st8" d="M252,490.6c-1.7,8.2-8.6,13-16.3,11.3c-5.7-1.2-8.7-5.7-7.5-11.2c1.6-7.7,8.4-12.9,16.3-11.3
		C250.5,480.7,253.1,485.5,252,490.6 M235,492c-0.5,2.6,0.4,4.6,2.6,5.1c3.6,0.8,6.7-4.1,7.5-7.9c0.4-2,0-4.4-2.6-5
		C238.8,483.4,235.7,488.5,235,492"/>
	<path class="st8" d="M279.4,487.6l-6.1,14.4c-1.2,2.7-2,5-2.8,7l-5.8-1.3l1.2-3.5l-0.1,0c-2.9,2.4-5.9,3-8.6,2.5
		c-3.5-0.8-5.2-3.3-4.3-7.5c0.3-1.2,0.7-2.5,1.4-4l5-11.9l6.5,1.4l-4.8,11.4c-0.4,0.9-0.8,2-1,2.8c-0.3,1.5,0,2.7,1.7,3.1
		c2.2,0.5,5.1-1.7,6.9-6l4.2-9.9L279.4,487.6z"/>
	<path class="st8" d="M276,510.1l5-12.9c1.3-3.3,2.2-7,2.8-8.8l5.7,1.1c-0.4,1.5-0.8,3-1.2,4.5l0.1,0c2.1-2.7,5-4.3,8.1-3.8
		c0.4,0.1,0.8,0.2,1.2,0.3l-2.5,6.2c-0.3-0.1-0.7-0.2-1.1-0.2c-4.2-0.8-6.9,2.6-8.5,6.9l-3.1,8L276,510.1z"/>
	<path class="st8" d="M302.1,514.6l7.2-22.1l6.6,0.8l-7.1,22.1L302.1,514.6z M310.9,486.6c0.3-2.3,2.3-3.6,4.3-3.3
		c1.9,0.3,3.2,1.7,2.9,3.7c-0.3,2.3-2.3,3.5-4.4,3.3C311.9,490,310.6,488.6,310.9,486.6"/>
	<path class="st8" d="M315.5,516.7l3.6-15.2c0.7-2.9,1.1-5.4,1.5-7.3l5.8,0.3l-0.6,3.7h0.1c2.2-2.8,5-3.9,8-3.8
		c3.6,0.2,5.1,2.5,5.2,4.5c2.2-2.8,5.1-4,8-3.9c3.5,0.2,5.5,2.5,5.3,6.4c0,1-0.3,2.7-0.6,3.9l-3.1,13.2l-6.5-0.3l2.9-12.3
		c0.2-0.9,0.4-1.9,0.5-2.8c0.1-1.6-0.6-2.7-2.2-2.8c-2.2-0.1-4.6,2.8-5.7,7.3l-2.4,10.3l-6.5-0.3l2.9-12.4c0.2-0.9,0.4-1.8,0.4-2.6
		c0.1-1.5-0.4-2.8-2-2.9c-2.3-0.1-4.8,3-5.8,7.4l-2.4,10.2L315.5,516.7z"/>
	<path class="st8" d="M370.6,517.4c0-1.4,0-2.9,0.1-4.5l-0.1,0c-1.9,3.9-4.7,5.3-7.3,5.4c-4.1,0.2-7-2.8-7.3-7.5
		c-0.4-7.7,4.2-16.1,15.4-16.8c2.7-0.1,5.7,0.2,7.6,0.7l-1.8,12.1c-0.4,3-0.6,7.5-0.3,10.3L370.6,517.4z M371.6,499.3
		c-0.5-0.1-1.2-0.1-1.8-0.1c-4.3,0.2-7.2,5.7-7,9.9c0.1,2.2,1.1,3.7,2.9,3.6c2-0.1,4.3-2.5,5.1-8.2L371.6,499.3z"/>
	<path class="st8" d="M383.6,519.6c1.3,0.6,4.2,0.8,6.1,0.6c3.3-0.3,5.7-2.1,6.1-6.7l0.2-1.9h-0.1c-1.5,2.5-3.5,3.7-6.1,4
		c-4.5,0.5-7.6-2.9-8.1-7.3c-0.8-7.5,3.8-15.5,13.7-16.5c3.2-0.3,6.1-0.1,8.5,0.7l-1.5,19c-0.4,4.2-1.2,8.1-3.7,10.5
		c-2.3,2.2-5.5,3.1-8.5,3.5c-3,0.3-5.9,0-7.5-0.7L383.6,519.6z M397,497.2c-0.5-0.2-1.5-0.3-2.4-0.2c-4,0.4-6.4,5.2-6,9.5
		c0.2,2.3,1.4,3.8,3.5,3.6c2.2-0.2,4.2-2.9,4.5-6.8L397,497.2z"/>
	<path class="st8" d="M407.7,513.8l1.4-23.2l6.6-0.9l-1.4,23.2L407.7,513.8z M409.2,484.5c-0.3-2.3,1.3-4,3.3-4.3
		c1.9-0.3,3.5,0.9,3.8,2.8c0.3,2.3-1.3,4-3.4,4.2C411,487.6,409.4,486.5,409.2,484.5"/>
	<path class="st8" d="M420.2,512.3l0.5-15.6c0.1-2.9,0.1-5.5,0-7.5l5.9-0.9l0.1,3.8l0.1,0c1.6-3.3,4.3-5,7.2-5.5
		c3.7-0.6,6.1,1.4,6.7,5.2c0.1,1,0.2,2.7,0.2,3.9l-0.4,13.5l-6.6,1.1l0.4-12.9c0-0.8,0-1.7-0.1-2.6c-0.3-1.6-1-2.6-2.6-2.3
		c-2.2,0.3-4.3,3.5-4.4,8.6l-0.3,10.3L420.2,512.3z"/>
	<path class="st8" d="M460.8,505.4c-0.2-1.4-0.4-2.9-0.5-4.5l-0.1,0c-1.3,4.1-3.9,5.9-6.5,6.4c-4,0.8-7.4-1.8-8.3-6.5
		c-1.5-7.6,2-16.6,13-18.7c2.7-0.5,5.6-0.6,7.6-0.3l-0.1,12.2c0,3,0.4,7.5,1.1,10.2L460.8,505.4z M459.3,487.3c-0.5,0-1.2,0-1.8,0.2
		c-4.3,0.8-6.4,6.6-5.6,10.8c0.4,2.2,1.6,3.5,3.4,3.2c2-0.4,4-3.1,3.9-8.8L459.3,487.3z"/>
	<path class="st8" d="M477.9,472l0.2,6.5l4.7-1.1l0.1,5.2l-4.8,1.1l0.2,7.9c0,0.9,0.1,2.1,0.3,2.9c0.3,1.1,0.9,1.8,2.3,1.5
		c0.6-0.1,1.2-0.3,1.8-0.5l0.4,5.3c-0.8,0.5-2.4,1-3.8,1.4c-3.9,0.9-6.2-0.7-6.8-3.5c-0.3-1.2-0.4-2.5-0.5-4.2l-0.2-9.2l-2.8,0.6
		l-0.2-5.2l2.9-0.6l-0.1-4.9L477.9,472z"/>
	<path class="st8" d="M485.5,470.5c-0.5-2.2,0.9-4.1,2.9-4.6c1.9-0.5,3.6,0.5,4,2.4c0.5,2.3-0.9,4.1-3,4.6
		C487.6,473.3,486,472.4,485.5,470.5 M487.1,499.8l-1.1-23.2l6.5-1.6l1.1,23.2L487.1,499.8z"/>
	<path class="st8" d="M518.8,477.4c2.1,8.1-1.8,15.4-9.5,17.5c-5.6,1.5-10.3-1.2-11.7-6.6c-2-7.7,1.6-15.3,9.5-17.4
		C513,469.2,517.5,472.4,518.8,477.4 M504.3,486.3c0.7,2.6,2.4,3.9,4.6,3.4c3.6-0.9,4.2-6.6,3.2-10.4c-0.5-2-2-3.9-4.6-3.3
		C503.8,476.9,503.3,482.8,504.3,486.3"/>
	<path class="st8" d="M524.5,490.2l-1.7-15.6c-0.3-2.9-0.7-5.4-1-7.4l5.7-1.7l0.7,3.7l0.1,0c1.2-3.5,3.5-5.6,6.4-6.4
		c3.6-1.1,6.2,0.5,7.4,4.2c0.3,1,0.6,2.7,0.8,3.8l1.5,13.4l-6.4,2l-1.4-12.8c-0.1-0.8-0.3-1.7-0.5-2.5c-0.5-1.5-1.3-2.4-2.9-1.9
		c-2.1,0.6-3.8,4-3.2,9.1l1.1,10.2L524.5,490.2z"/>
	<path d="M234.4,110.4c1.5,0.7,3.8,1.2,6.1,1.2c3.5,0,5.5-1.3,5.5-3.3c0-1.8-1.4-2.8-5-3.8c-4.3-1.1-7-2.7-7-5.4
		c0-3,3.4-5.2,8.5-5.2c2.7,0,4.7,0.4,5.8,0.9l-0.9,2c-0.9-0.3-2.6-0.9-5-0.9c-3.6,0-5,1.6-5,2.9c0,1.8,1.6,2.7,5.3,3.7
		c4.5,1.2,6.8,2.8,6.8,5.6c0,3-3,5.5-9.3,5.5c-2.6,0-5.3-0.5-6.8-1.2L234.4,110.4z"/>
	<path d="M257.2,95.8c0,0.9-0.8,1.5-2.2,1.5c-1.2,0-2.1-0.7-2.1-1.5c0-0.9,0.9-1.6,2.2-1.6C256.4,94.2,257.2,94.9,257.2,95.8
		 M253.3,99.7h3.5v13.8h-3.5V99.7z"/>
	<path d="M261.9,103.4c0-1.4,0-2.6-0.2-3.7h3.1l0.2,2.3h0.1c0.9-1.3,3.1-2.6,6.3-2.6c2.6,0,6.7,1.1,6.7,5.8v8.2h-3.5v-7.9
		c0-2.2-1.1-4.1-4.4-4.1c-2.3,0-4,1.2-4.6,2.6c-0.2,0.3-0.2,0.7-0.2,1.2v8.3h-3.5V103.4z"/>
	<path d="M296.8,112.9c-0.9,0.3-2.9,0.8-5.4,0.8c-5.7,0-9.5-2.8-9.5-7c0-4.2,4-7.3,10.2-7.3c2,0,3.8,0.4,4.8,0.7l-0.8,1.9
		c-0.8-0.3-2.1-0.7-4-0.7c-4.3,0-6.7,2.3-6.7,5.2c0,3.2,2.8,5.1,6.6,5.1c2,0,3.3-0.4,4.2-0.7L296.8,112.9z"/>
	<path d="M301.8,107c0.1,3.4,3.1,4.8,6.5,4.8c2.5,0,4-0.3,5.3-0.7l0.6,1.8c-1.2,0.4-3.3,0.9-6.3,0.9c-5.8,0-9.4-2.8-9.4-6.9
		s3.4-7.4,8.9-7.4c6.2,0,7.9,4,7.9,6.5c0,0.5-0.1,0.9-0.1,1.2H301.8z M312,105.2c0-1.6-0.9-4.1-4.8-4.1c-3.5,0-5,2.3-5.3,4.1H312z"
		/>
	<polygon points="334.3,97.3 334.2,97.3 329.8,99 329.1,97.1 334.7,95 337.6,95 337.6,113.4 334.3,113.4 	"/>
	<polygon points="359.8,95 359.8,96.6 348.7,113.5 345.1,113.5 356.2,97.1 356.2,97 343.7,97 343.7,95 	"/>
	<path d="M375.7,96.7c-0.7,0-1.6,0-2.6,0.1c-5.4,0.7-8.3,3.5-8.9,6.6h0.1c1.2-1.2,3.3-2.1,6.2-2.1c4.5,0,7.7,2.4,7.7,6
		c0,3.4-3.2,6.5-8.5,6.5c-5.4,0-9-3.1-9-7.9c0-3.7,1.8-6.5,4.3-8.3c2.1-1.5,4.9-2.4,8.1-2.7c1-0.1,1.9-0.1,2.5-0.1V96.7z
		 M374.7,107.4c0-2.6-2.1-4.2-5.3-4.2c-2.1,0-4,0.9-4.9,2.3c-0.2,0.3-0.4,0.7-0.4,1.1c0.1,3,2,5.3,5.6,5.3
		C372.7,111.8,374.7,110,374.7,107.4"/>
	<path d="M398,104c0,6.3-3.2,9.8-8.9,9.8c-5,0-8.4-3.4-8.4-9.5c0-6.2,3.7-9.6,8.9-9.6C395,94.6,398,98.1,398,104 M384.2,104.3
		c0,4.8,2,7.5,5.2,7.5c3.5,0,5.2-3,5.2-7.7c0-4.6-1.6-7.5-5.2-7.5C386.4,96.6,384.2,99.3,384.2,104.3"/>
	<path class="st0" d="M295.8,136.3c0,0,9.6,42.8-7.1,72.3c-25.3,44.5-66.8,51.6-66.8,51.6s22.9-24.6,22.9-62
		c0-24.6-7.6-37.5-7.6-37.5s7.9-6.2,27.5-13.8C284.2,139.2,295.8,136.3,295.8,136.3"/>
	<path class="st0" d="M234,256.5c0,0,34-8.8,98.1-36.9c64.1-28,96.1-64.4,96.1-64.4s4.4,2.5,9.8,9.8c5.4,7.4,6.9,13.4,6.9,13.4
		c0,0-32.4,18.8-110.1,54.8c-75,34.7-88.8,40.5-88.8,40.5L234,256.5z"/>
	<path d="M68.4,281h20.8c10,0,19.7,5.6,19.7,15.7c0,10-7.3,29.1-26.3,29.1h-20L68.4,281z M37.1,275c-1.2,9.6-5.5,42.4-15.9,123
		c-1.6,12.1-8.7,15.2-8.7,15.2h75.7c7.5,0,25.1-2,37.9-13.4c12.2-10.9,14-31.8,14-37.3c0-28.6-34.4-28.4-34.4-28.4s25.5-7,31.9-26.3
		c1.3-4,1.9-10.2,1.9-15.4c0-21.3-15.5-30-34.6-30H33.1C33.1,262.3,38.4,265.3,37.1,275 M60.1,345.1h24.1c10,0,22.9,5,22.9,19.7
		c0,14.7-8.9,28.4-28.9,28.4H53.9L60.1,345.1z"/>
</g>
</svg>
